inDegrees=no
num_controls=7
num_derivatives=13
num_iterations=116
num_multipliers=7
num_parameters=0
num_slacks=7
num_states=26
objective=3.997727
objective_accelerations=0.562342
objective_balance=0.070796
objective_effort=0.463532
objective_height=2.817860
objective_ligament=0.083198
solver_duration=1254.046897
status=Solve_Succeeded
success=true
DataType=double
version=3
OpenSimVersion=4.4-2022-07-23-0e9fedc
endheader
time	/jointset/ground_pelvis/pelvis_tilt/value	/jointset/ground_pelvis/pelvis_tx/value	/jointset/ground_pelvis/pelvis_ty/value	/jointset/hip_l/hip_flexion_l/value	/jointset/hip_l/hip_adduction_l/value	/jointset/hip_l/hip_rotation_l/value	/jointset/back/lumbar_extension/value	/jointset/patellofemoral_l/patellar_flexion_l/value	/jointset/knee_l/knee_flexion_l/value	/jointset/knee_l/knee_adduction_l/value	/jointset/knee_l/knee_rotation_l/value	/jointset/ankle_l/ankle_angle_l/value	/jointset/subtalar_l/subtalar_angle_l/value	/jointset/ground_pelvis/pelvis_tilt/speed	/jointset/ground_pelvis/pelvis_tx/speed	/jointset/ground_pelvis/pelvis_ty/speed	/jointset/hip_l/hip_flexion_l/speed	/jointset/hip_l/hip_adduction_l/speed	/jointset/hip_l/hip_rotation_l/speed	/jointset/back/lumbar_extension/speed	/jointset/patellofemoral_l/patellar_flexion_l/speed	/jointset/knee_l/knee_flexion_l/speed	/jointset/knee_l/knee_adduction_l/speed	/jointset/knee_l/knee_rotation_l/speed	/jointset/ankle_l/ankle_angle_l/speed	/jointset/subtalar_l/subtalar_angle_l/speed	/forceset/tau_hip_flexion_l	/forceset/tau_hip_adduction_l	/forceset/tau_hip_rotation_l	/forceset/tau_knee_flexion_l	/forceset/tau_ankle_angle_l	/forceset/tau_subtalar_angle_l	/forceset/tau_lumbar_extension	lambda_cid13_p0	lambda_cid13_p1	lambda_cid13_p2	lambda_cid13_p3	lambda_cid13_p4	lambda_cid13_p5	lambda_cid14_p0	/jointset/ground_pelvis/pelvis_tilt/accel	/jointset/ground_pelvis/pelvis_tx/accel	/jointset/ground_pelvis/pelvis_ty/accel	/jointset/hip_l/hip_flexion_l/accel	/jointset/hip_l/hip_adduction_l/accel	/jointset/hip_l/hip_rotation_l/accel	/jointset/back/lumbar_extension/accel	/jointset/patellofemoral_l/patellar_flexion_l/accel	/jointset/knee_l/knee_flexion_l/accel	/jointset/knee_l/knee_adduction_l/accel	/jointset/knee_l/knee_rotation_l/accel	/jointset/ankle_l/ankle_angle_l/accel	/jointset/subtalar_l/subtalar_angle_l/accel	gamma_cid13_p0	gamma_cid13_p1	gamma_cid13_p2	gamma_cid13_p3	gamma_cid13_p4	gamma_cid13_p5	gamma_cid14_p0
1	-0.4131497526332121	-0.02147406313831194	0.456349803093862	2.094395102393195	-0.239438241503931	0.08126896778221618	-0.4363323088720091	1.869610255096221	1.869610255096265	0.1316958896235404	0.1745314624711776	0.4363323061761211	0.1417928289067803	-0.01618226075776073	-0.001299215055935325	0.001283984564611484	0.009570253859152502	0.002275810047387623	0.02253425038802241	-2.047637759990895e-06	-0.009982164041606394	-0.009982164041606375	-0.02323599065869931	1.742656007044465e-05	-0.003988365605280243	0.001589847911980891	-0.3252959808599566	0.01235361537416623	-0.04389737440601246	-0.4562574684148317	-0.004560902825969447	0.01657117383131519	0.2945414856908397	-50.8420768425055	9.902155593305563	-11.34396713546771	29.54058426207786	-764.3526297535593	-49.5208812154734	-0.03357806720567561	-0.1078605229040878	-0.5394358310025406	2.516923243102172	-6.649851057554454	-0.09602412272116023	-0.9055841197687563	0.00478608334895933	-7.291640669229099	-7.291640669229201	-1.267156626745672	0.007946056112060137	-0.8780648880259709	-0.4970911988163163	6.824127043117579e-09	-1.504383744753494e-08	-1.38594538522013e-08	-2.084156820508373e-09	-5.952981587414901e-09	-5.511101518716747e-08	6.06284591507968e-09
1.01	-0.4133166096491314	-0.02151391984962199	0.4564885713661418	2.094157612414751	-0.239419820616563	0.08145288091337657	-0.4363321578875193	1.869145947978573	1.86914594797857	0.1313968531705281	0.1745315877894205	0.4362489900918785	0.1417847898356905	-0.01715609435176818	-0.006661393541627031	0.02647710424016407	-0.05711737382789511	0.001401054127941056	0.01424164049932738	2.926751607836693e-05	-0.08288365757923498	-0.08288365757923456	-0.03657194698616116	8.503010087409372e-06	-0.01266730913013239	-0.003205232001827608	-0.3256652211617058	0.01238240887581285	-0.04372401499946177	-0.456236904395694	-0.0044492469432912	0.01650144783599591	0.2948647885467931	-50.82011181043874	9.925835708599251	-11.34459453468002	29.38304622115469	-764.6014000749245	-49.54287613679575	-0.03358144128493089	-0.08718336244348837	-0.5330004594879709	2.521617036299808	-6.685142822768897	-0.08428349634019001	-0.7921032532242734	0.001857677724617169	-7.290068331287952	-7.290068331287832	-1.366899782807263	-0.005146900951642858	-0.8616784089351426	-0.4718248996870192	1.745402180946589e-08	-8.8457214284843e-08	-1.094150547610552e-07	-8.197277269673656e-09	-2.206624536330358e-08	-3.230415978390424e-07	2.442246027759485e-08
1.02	-0.4134922127179503	-0.0216070766662161	0.4568794929764806	2.093251846632302	-0.239410363722346	0.08155366717969377	-0.4363317830622322	1.867952492998497	1.867952492998448	0.1309644402248396	0.1745316568040844	0.4360791107075412	0.1417285782630575	-0.01793147133755332	-0.01195923611274568	0.05171465217642403	-0.1240819694545034	0.0004830114171434014	0.00590887741845744	4.272052284530314e-05	-0.1558117365271932	-0.1558117365271918	-0.04991128919605768	6.16584417719676e-06	-0.02130102562379641	-0.008044652396590617	-0.3260344614634555	0.01241120237746261	-0.04355065559289528	-0.4562163403765563	-0.004337591060611785	0.01643172184068223	0.2951880914027471	-50.80039311543558	9.945722920996362	-11.33983533561712	29.28120497134802	-764.8632307267228	-49.57128247157411	-0.0336256139474013	-0.06816920125963666	-0.526568648087928	2.525808895243645	-6.705244645466585	-0.1046814809913722	-0.9136147582037351	0.001213653934384078	-7.29695775129502	-7.296957751295007	-1.267833803232601	0.00926333292661261	-0.8690194817883435	-0.5059592950072077	3.264885321446014e-08	-1.612551145919474e-07	-2.013720033288774e-07	-2.935121490181487e-08	-3.949655842192242e-08	-5.833675405731768e-07	4.152829700498593e-08
1.03	-0.4136744353535242	-0.02175280878748008	0.4575229332184503	2.091675306555265	-0.2394102946192033	0.08157088032123305	-0.4363313164470939	1.866029794414533	1.866029794414496	0.1303987314582176	0.1745317153381291	0.435822890211183	0.1416236776905443	-0.01846400654497508	-0.01716812925144785	0.07697329288944543	-0.1912496856712481	-0.0004754063399556572	-0.002470695569908248	5.018936143771689e-05	-0.2287157407428413	-0.228715740742841	-0.0632262688427626	5.232049135050348e-06	-0.02995754733917955	-0.01294966538333863	-0.3263433123009484	0.01240966245983675	-0.04325028176452114	-0.4560447878420647	-0.004017521102409689	0.0164198783764556	0.2954884860819627	-50.68823115024188	9.906368276504308	-11.30516570973238	29.02420356676074	-764.9131545813918	-49.69078785547038	-0.03369000443131669	-0.03842948847471415	-0.5152010743335772	2.525864666338189	-6.726073007003579	-0.09231470804849971	-0.8007785151771362	0.0004515263748020408	-7.285297656165379	-7.285297656165555	-1.362668209126033	-0.004725351351005652	-0.8661412569452532	-0.4848309565866008	4.789026560556305e-08	-2.340467345262946e-07	-2.932922309544442e-07	-5.065863026031307e-08	-5.694031075893647e-08	-8.436158849408035e-07	5.8621340083039e-08
